<?xml version="1.0" encoding="UTF-8" standalone="no"?>
<svg width="1280px" height="720px" viewBox="0 0 1280 720" version="1.1" xmlns="http://www.w3.org/2000/svg" xmlns:xlink="http://www.w3.org/1999/xlink">
    <!-- Generator: Sketch 3.8.3 (29802) - http://www.bohemiancoding.com/sketch -->
    <title>Artboard 1</title>
    <desc>Created with Sketch.</desc>
    <defs></defs>
    <g id="Page-1" stroke="none" stroke-width="1" fill="none" fill-rule="evenodd">
        <path d="M0,0 L1280,0 L1280,720 L0,720 L0,0 L0,0 Z M749.8626,298.088698 C748.59353,299.262524 747.164,300.852019 745.6143,303.004276 C744.3795,304.719197 740.98077,304.617562 739.86218,304.533604 L740.01451,304.783449 L712.12323,321.299438 C734.54893,364.480247 719.19713,418.079761 676.637495,442.651578 C671.696556,445.504231 666.60015,447.843691 661.410002,449.686497 C664.574053,433.741175 662.187734,416.623858 653.420833,401.43914 L633.896437,367.621894 L550.770165,416.845606 L547.453913,423.746128 L531.257743,433.096992 L534.664005,425.042888 L533.314295,422.829137 L532.946013,423.047715 L524.020886,422.09777 L540.051395,412.465668 L548.627541,412.964972 L631.680885,363.784445 L609.416335,325.221114 C600.569203,309.897432 586.765756,299.217564 571.199044,294.037596 C575.453142,290.385668 580.105117,287.074375 585.137495,284.16893 C628.819463,258.949134 684.65262,273.840561 709.9868,317.415133 L737.70777,301 L737.90767,301.327875 C738.01786,299.255933 740.3142,296.23222 747.86118,294.662935 C755.94785,292.98143 756.03441,294.662935 756.03441,294.662935 L755.73237,294.781198 C755.82531,294.774378 755.87322,294.776254 755.87322,294.776254 L748.17799,299.346306 L749.8626,298.088698 L749.8626,298.088698 Z" id="Combined-Shape" fill="#C27A71"></path>
        <g id="Artboard-1">
            <g id="Correct-sag-icon" transform="translate(524.000000, 271.000000)">
                <g id="Page-1">
                    <g id="Artboard-1"></g>
                </g>
            </g>
        </g>
    </g>
</svg>