<?xml version="1.0" encoding="UTF-8" standalone="no"?>
<svg width="1920px" height="1080px" viewBox="0 0 1920 1080" version="1.1" xmlns="http://www.w3.org/2000/svg" xmlns:xlink="http://www.w3.org/1999/xlink">
    <!-- Generator: Sketch 3.8.3 (29802) - http://www.bohemiancoding.com/sketch -->
    <title>Artboard 1</title>
    <desc>Created with Sketch.</desc>
    <defs></defs>
    <g id="Page-1" stroke="none" stroke-width="1" fill="none" fill-rule="evenodd">
        <path d="M0,0 L1920,0 L1920,1080 L0,1080 L0,0 L0,0 Z M1144.96138,434.70272 C1142.82085,436.683141 1140.40967,439.364859 1137.79579,442.996041 C1135.71306,445.889371 1129.98044,445.717898 1128.09372,445.576248 L1128.35065,445.997774 L1081.30656,473.862739 C1119.13189,546.715277 1093.23808,637.145742 1021.45294,678.602104 C1013.11908,683.41496 1004.523,687.361981 995.768802,690.471073 C1001.10559,663.56891 997.080599,634.689414 982.293508,609.070504 L949.361801,552.015709 L809.153111,635.063536 L803.559604,646.705758 L776.241601,662.482076 L781.986927,648.893588 L779.710377,645.158656 L779.089198,645.52743 L764.035228,643.924729 L791.073812,627.67392 L805.539157,628.516321 L945.62484,545.541354 L908.071329,480.479198 C893.148913,454.625835 869.866704,436.607287 843.610405,427.867899 C850.785772,421.706546 858.632236,416.119895 867.120324,411.217971 C940.798493,368.668371 1034.97202,393.792455 1077.70306,467.309331 L1124.45989,439.614525 L1124.79706,440.1677 C1124.98291,436.672021 1128.85614,431.570561 1141.5856,428.922941 C1155.22534,426.085988 1155.37134,428.922941 1155.37134,428.922941 L1154.86189,429.122468 C1155.01866,429.110962 1155.09947,429.114127 1155.09947,429.114127 L1142.11996,436.824494 L1144.96138,434.70272 L1144.96138,434.70272 Z" id="Combined-Shape" fill="#C27A71"></path>
        <g id="Artboard-1">
            <g id="Correct-sag-icon" transform="translate(764.000000, 390.000000)">
                <g id="Page-1">
                    <g id="Artboard-1"></g>
                </g>
            </g>
        </g>
    </g>
</svg>