<?xml version="1.0" encoding="UTF-8" standalone="no"?>
<svg width="320px" height="578px" viewBox="0 0 320 578" version="1.1" xmlns="http://www.w3.org/2000/svg" xmlns:xlink="http://www.w3.org/1999/xlink">
    <!-- Generator: Sketch 3.8.3 (29802) - http://www.bohemiancoding.com/sketch -->
    <title>Artboard 1</title>
    <desc>Created with Sketch.</desc>
    <defs></defs>
    <g id="Page-1" stroke="none" stroke-width="1" fill="none" fill-rule="evenodd">
        <path d="M0,0 L320,0 L320,578 L0,578 L0,0 L0,0 Z M269.8626,207.088698 C268.59353,208.262524 267.164,209.852019 265.6143,212.004276 C264.3795,213.719197 260.98077,213.617562 259.86218,213.533604 L260.01451,213.783449 L232.12323,230.299438 C254.54893,273.480247 239.19713,327.079761 196.637495,351.651578 C191.696556,354.504231 186.60015,356.843691 181.410002,358.686497 C184.574053,342.741175 182.187734,325.623858 173.420833,310.43914 L153.896437,276.621894 L70.770165,325.845606 L67.453913,332.746128 L51.257743,342.096992 L54.664005,334.042888 L53.314295,331.829137 L52.946013,332.047715 L44.020886,331.09777 L60.051395,321.465668 L68.627541,321.964972 L151.680885,272.784445 L129.416335,234.221114 C120.569203,218.897432 106.765756,208.217564 91.199044,203.037596 C95.453142,199.385668 100.105117,196.074375 105.137495,193.16893 C148.819463,167.949134 204.65262,182.840561 229.9868,226.415133 L257.70777,210 L257.90767,210.327875 C258.01786,208.255933 260.3142,205.23222 267.86118,203.662935 C275.94785,201.98143 276.03441,203.662935 276.03441,203.662935 L275.73237,203.781198 C275.82531,203.774378 275.87322,203.776254 275.87322,203.776254 L268.17799,208.346306 L269.8626,207.088698 L269.8626,207.088698 Z" id="Combined-Shape" fill="#C27A71"></path>
        <g id="Artboard-1">
            <g id="Correct-sag-icon" transform="translate(44.000000, 200.000000)">
                <g id="Page-1">
                    <g id="Artboard-1"></g>
                </g>
            </g>
        </g>
    </g>
</svg>