<?xml version="1.0" encoding="UTF-8" standalone="no"?>
<svg width="414px" height="736px" viewBox="0 0 414 736" version="1.1" xmlns="http://www.w3.org/2000/svg" xmlns:xlink="http://www.w3.org/1999/xlink">
    <!-- Generator: Sketch 3.8.3 (29802) - http://www.bohemiancoding.com/sketch -->
    <title>Artboard 1</title>
    <desc>Created with Sketch.</desc>
    <defs></defs>
    <g id="Page-1" stroke="none" stroke-width="1" fill="none" fill-rule="evenodd">
        <path d="M0,0 L414,0 L414,736 L0,736 L0,0 L0,0 Z M316.8626,306.088698 C315.59353,307.262524 314.164,308.852019 312.6143,311.004276 C311.3795,312.719197 307.98077,312.617562 306.86218,312.533604 L307.01451,312.783449 L279.12323,329.299438 C301.54893,372.480247 286.19713,426.079761 243.637495,450.651578 C238.696556,453.504231 233.60015,455.843691 228.410002,457.686497 C231.574053,441.741175 229.187734,424.623858 220.420833,409.43914 L200.896437,375.621894 L117.770165,424.845606 L114.453913,431.746128 L98.257743,441.096992 L101.664005,433.042888 L100.314295,430.829137 L99.946013,431.047715 L91.020886,430.09777 L107.051395,420.465668 L115.627541,420.964972 L198.680885,371.784445 L176.416335,333.221114 C167.569203,317.897432 153.765756,307.217564 138.199044,302.037596 C142.453142,298.385668 147.105117,295.074375 152.137495,292.16893 C195.819463,266.949134 251.65262,281.840561 276.9868,325.415133 L304.70777,309 L304.90767,309.327875 C305.01786,307.255933 307.3142,304.23222 314.86118,302.662935 C322.94785,300.98143 323.03441,302.662935 323.03441,302.662935 L322.73237,302.781198 C322.82531,302.774378 322.87322,302.776254 322.87322,302.776254 L315.17799,307.346306 L316.8626,306.088698 L316.8626,306.088698 Z" id="Combined-Shape" fill="#C27A71"></path>
        <g id="Artboard-1">
            <g id="Correct-sag-icon" transform="translate(91.000000, 279.000000)">
                <g id="Page-1">
                    <g id="Artboard-1"></g>
                </g>
            </g>
        </g>
    </g>
</svg>