<?xml version="1.0" encoding="UTF-8" standalone="no"?>
<svg width="435px" height="773px" viewBox="0 0 435 773" version="1.1" xmlns="http://www.w3.org/2000/svg" xmlns:xlink="http://www.w3.org/1999/xlink">
    <!-- Generator: Sketch 3.8.3 (29802) - http://www.bohemiancoding.com/sketch -->
    <title>Artboard 1</title>
    <desc>Created with Sketch.</desc>
    <defs></defs>
    <g id="Page-1" stroke="none" stroke-width="1" fill="none" fill-rule="evenodd">
        <path d="M0,0 L435,0 L435,773 L0,773 L0,0 L0,0 Z M326.8626,324.088698 C325.59353,325.262524 324.164,326.852019 322.6143,329.004276 C321.3795,330.719197 317.98077,330.617562 316.86218,330.533604 L317.01451,330.783449 L289.12323,347.299438 C311.54893,390.480247 296.19713,444.079761 253.637495,468.651578 C248.696556,471.504231 243.60015,473.843691 238.410002,475.686497 C241.574053,459.741175 239.187734,442.623858 230.420833,427.43914 L210.896437,393.621894 L127.770165,442.845606 L124.453913,449.746128 L108.257743,459.096992 L111.664005,451.042888 L110.314295,448.829137 L109.946013,449.047715 L101.020886,448.09777 L117.051395,438.465668 L125.627541,438.964972 L208.680885,389.784445 L186.416335,351.221114 C177.569203,335.897432 163.765756,325.217564 148.199044,320.037596 C152.453142,316.385668 157.105117,313.074375 162.137495,310.16893 C205.819463,284.949134 261.65262,299.840561 286.9868,343.415133 L314.70777,327 L314.90767,327.327875 C315.01786,325.255933 317.3142,322.23222 324.86118,320.662935 C332.94785,318.98143 333.03441,320.662935 333.03441,320.662935 L332.73237,320.781198 C332.82531,320.774378 332.87322,320.776254 332.87322,320.776254 L325.17799,325.346306 L326.8626,324.088698 L326.8626,324.088698 Z" id="Combined-Shape" fill="#C27A71"></path>
        <g id="Artboard-1">
            <g id="Correct-sag-icon" transform="translate(101.000000, 297.000000)">
                <g id="Page-1">
                    <g id="Artboard-1"></g>
                </g>
            </g>
        </g>
    </g>
</svg>