<?xml version="1.0" encoding="UTF-8" standalone="no"?>
<svg width="960px" height="540px" viewBox="0 0 960 540" version="1.1" xmlns="http://www.w3.org/2000/svg" xmlns:xlink="http://www.w3.org/1999/xlink">
    <!-- Generator: Sketch 3.8.3 (29802) - http://www.bohemiancoding.com/sketch -->
    <title>Artboard 1</title>
    <desc>Created with Sketch.</desc>
    <defs></defs>
    <g id="Page-1" stroke="none" stroke-width="1" fill="none" fill-rule="evenodd">
        <path d="M1,0 L961,0 L961,540 L1,540 L1,0 L1,0 Z M589.8626,208.088698 C588.59353,209.262524 587.164,210.852019 585.6143,213.004276 C584.3795,214.719197 580.98077,214.617562 579.86218,214.533604 L580.01451,214.783449 L552.12323,231.299438 C574.54893,274.480247 559.19713,328.079761 516.637495,352.651578 C511.696556,355.504231 506.60015,357.843691 501.410002,359.686497 C504.574053,343.741175 502.187734,326.623858 493.420833,311.43914 L473.896437,277.621894 L390.770165,326.845606 L387.453913,333.746128 L371.257743,343.096992 L374.664005,335.042888 L373.314295,332.829137 L372.946013,333.047715 L364.020886,332.09777 L380.051395,322.465668 L388.627541,322.964972 L471.680885,273.784445 L449.416335,235.221114 C440.569203,219.897432 426.765756,209.217564 411.199044,204.037596 C415.453142,200.385668 420.105117,197.074375 425.137495,194.16893 C468.819463,168.949134 524.65262,183.840561 549.9868,227.415133 L577.70777,211 L577.90767,211.327875 C578.01786,209.255933 580.3142,206.23222 587.86118,204.662935 C595.94785,202.98143 596.03441,204.662935 596.03441,204.662935 L595.73237,204.781198 C595.82531,204.774378 595.87322,204.776254 595.87322,204.776254 L588.17799,209.346306 L589.8626,208.088698 L589.8626,208.088698 Z" id="Combined-Shape" fill="#C27A71"></path>
        <g id="Artboard-1">
            <g id="Correct-sag-icon" transform="translate(364.000000, 181.000000)">
                <g id="Page-1">
                    <g id="Artboard-1"></g>
                </g>
            </g>
        </g>
    </g>
</svg>