<?xml version="1.0" encoding="UTF-8" standalone="no"?>
<svg width="233px" height="180px" viewBox="0 0 233 180" version="1.1" xmlns="http://www.w3.org/2000/svg" xmlns:xlink="http://www.w3.org/1999/xlink">
    <!-- Generator: Sketch 3.8.2 (29753) - http://www.bohemiancoding.com/sketch -->
    <title>Combined Shape</title>
    <desc>Created with Sketch.</desc>
    <defs></defs>
    <g id="Page-1" stroke="none" stroke-width="1" fill="none" fill-rule="evenodd">
        <g id="Artboard-1" transform="translate(-844.000000, -451.000000)" stroke="#C27A71" fill="#C27A71">
            <path d="M1071.86854,476.294051 L1070.82691,476.701892 L1070.82691,476.701892 C1070.0729,477.295724 1069.31669,477.928394 1068.76155,478.47854 C1068.48218,478.755404 1068.16129,479.114711 1067.8263,479.512921 C1068.75624,478.719471 1070.2457,477.466982 1071.22033,476.73939 C1071.39647,476.607896 1071.62213,476.454399 1071.86854,476.294051 L1071.86854,476.294051 Z M1069.8626,478.088698 C1068.59353,479.262524 1067.164,480.852019 1065.6143,483.004276 C1064.3795,484.719197 1060.98077,484.617562 1059.86218,484.533604 L1060.01451,484.783449 L1032.12323,501.299438 C1054.54893,544.480247 1039.19713,598.079761 996.637495,622.651578 C991.696556,625.504231 986.60015,627.843691 981.410002,629.686497 C984.574053,613.741175 982.187734,596.623858 973.420833,581.43914 L953.896437,547.621894 L870.770165,596.845606 L867.453913,603.746128 L851.257743,613.096992 L854.664005,605.042888 L853.314295,602.829137 L852.946013,603.047715 L844.020886,602.09777 L860.051395,592.465668 L868.627541,592.964972 L951.680885,543.784445 L929.416335,505.221114 C920.569203,489.897432 906.765756,479.217564 891.199044,474.037596 L891.199044,474.037596 C895.453142,470.385668 900.105117,467.074375 905.137495,464.16893 C948.819463,438.949134 1004.65262,453.840561 1029.9868,497.415133 L1057.70777,481 L1057.90767,481.327875 C1058.01786,479.255933 1060.3142,476.23222 1067.86118,474.662935 C1075.94785,472.98143 1076.03441,474.662935 1076.03441,474.662935 L1075.73237,474.781198 C1075.82531,474.774378 1075.87322,474.776254 1075.87322,474.776254 L1068.17799,479.346306 L1069.8626,478.088698 L1069.8626,478.088698 Z" id="Combined-Shape"></path>
        </g>
    </g>
</svg>