<?xml version="1.0" encoding="UTF-8" standalone="no"?>
<svg width="1920px" height="1080px" viewBox="0 0 1920 1080" version="1.1" xmlns="http://www.w3.org/2000/svg" xmlns:xlink="http://www.w3.org/1999/xlink">
    <!-- Generator: Sketch 3.8.2 (29753) - http://www.bohemiancoding.com/sketch -->
    <title>Combined Shape</title>
    <desc>Created with Sketch.</desc>
    <defs>
        <path d="M0,0 L1920,0 L1920,1080 L0,1080 L0,0 L0,0 Z M1069.8626,478.088698 C1068.59353,479.262524 1067.164,480.852019 1065.6143,483.004276 C1064.3795,484.719197 1060.98077,484.617562 1059.86218,484.533604 L1060.01451,484.783449 L1032.12323,501.299438 C1054.54893,544.480247 1039.19713,598.079761 996.637495,622.651578 C991.696556,625.504231 986.60015,627.843691 981.410002,629.686497 C984.574053,613.741175 982.187734,596.623858 973.420833,581.43914 L953.896437,547.621894 L870.770165,596.845606 L867.453913,603.746128 L851.257743,613.096992 L854.664005,605.042888 L853.314295,602.829137 L852.946013,603.047715 L844.020886,602.09777 L860.051395,592.465668 L868.627541,592.964972 L951.680885,543.784445 L929.416335,505.221114 C920.569203,489.897432 906.765756,479.217564 891.199044,474.037596 L891.199044,474.037596 C895.453142,470.385668 900.105117,467.074375 905.137495,464.16893 C948.819463,438.949134 1004.65262,453.840561 1029.9868,497.415133 L1057.70777,481 L1057.90767,481.327875 C1058.01786,479.255933 1060.3142,476.23222 1067.86118,474.662935 C1075.94785,472.98143 1076.03441,474.662935 1076.03441,474.662935 L1075.73237,474.781198 C1075.82531,474.774378 1075.87322,474.776254 1075.87322,474.776254 L1068.17799,479.346306 L1069.8626,478.088698 L1069.8626,478.088698 L1069.8626,478.088698 Z" id="path-1"></path>
        <mask id="mask-2" maskContentUnits="userSpaceOnUse" maskUnits="objectBoundingBox" x="0" y="0" width="1920" height="1080" fill="white">
            <use xlink:href="#path-1"></use>
        </mask>
    </defs>
    <g id="Page-1" stroke="none" stroke-width="1" fill="none" fill-rule="evenodd">
        <g id="Artboard-1" stroke="#C07970" stroke-width="2" fill="#C07970">
            <use id="Combined-Shape" mask="url(#mask-2)" xlink:href="#path-1"></use>
        </g>
    </g>
</svg>